<?xml version="1.0" encoding="UTF-8"?>
<svg id="Layer_5" data-name="Layer 5" xmlns="http://www.w3.org/2000/svg" xmlns:xlink="http://www.w3.org/1999/xlink" viewBox="0 0 773.76 1737.38">
  <defs>
    <style>
      .cls-1, .cls-2, .cls-3, .cls-4, .cls-5, .cls-6, .cls-7, .cls-8, .cls-9, .cls-10, .cls-11 {
        font-family: AGaramondPro-Bold, 'Adobe Garamond Pro';
        font-weight: 700;
      }

      .cls-1, .cls-4, .cls-12, .cls-6 {
        fill: #0dbe98;
      }

      .cls-1, .cls-7 {
        letter-spacing: .08em;
      }

      .cls-1, .cls-7, .cls-8 {
        font-size: 47.84px;
      }

      .cls-2 {
        font-size: 32px;
      }

      .cls-2, .cls-9, .cls-13 {
        fill: #010a05;
      }

      .cls-14 {
        fill: #f2f4f4;
      }

      .cls-14, .cls-15, .cls-16, .cls-17, .cls-18, .cls-19, .cls-20, .cls-21, .cls-22, .cls-23, .cls-24 {
        stroke-miterlimit: 10;
      }

      .cls-14, .cls-18, .cls-19 {
        stroke: #0a0a0a;
      }

      .cls-14, .cls-19 {
        stroke-width: .5px;
      }

      .cls-3 {
        font-size: 13.23px;
      }

      .cls-3, .cls-25, .cls-10, .cls-11 {
        fill: #6060e4;
      }

      .cls-15 {
        stroke: #020202;
      }

      .cls-15, .cls-16, .cls-17, .cls-18, .cls-19, .cls-20, .cls-21, .cls-22, .cls-23, .cls-24 {
        fill: none;
      }

      .cls-15, .cls-23 {
        stroke-width: .75px;
      }

      .cls-4 {
        font-size: 99.39px;
        letter-spacing: .08em;
      }

      .cls-26 {
        fill: #f7edf9;
      }

      .cls-27 {
        fill: url(#linear-gradient-5);
      }

      .cls-28 {
        fill: url(#linear-gradient-6);
      }

      .cls-29 {
        fill: url(#linear-gradient-4);
      }

      .cls-30 {
        fill: url(#linear-gradient-3);
      }

      .cls-31 {
        fill: url(#linear-gradient-2);
      }

      .cls-16 {
        stroke: #0a0c0b;
        stroke-width: 2px;
      }

      .cls-32 {
        fill: url(#linear-gradient);
      }

      .cls-5 {
        font-size: 12px;
        letter-spacing: .08em;
      }

      .cls-17 {
        stroke: #0c0102;
      }

      .cls-6 {
        font-size: 19.25px;
        letter-spacing: .08em;
      }

      .cls-8 {
        letter-spacing: .08em;
      }

      .cls-9 {
        font-size: 33px;
      }

      .cls-10 {
        font-size: 68.33px;
      }

      .cls-18 {
        stroke-width: 1.73px;
      }

      .cls-33 {
        fill: #28257f;
      }

      .cls-11 {
        font-size: 32.89px;
      }

      .cls-34 {
        fill: #0a0a0a;
      }

      .cls-35 {
        letter-spacing: -.02em;
      }

      .cls-36 {
        letter-spacing: 0em;
      }

      .cls-20 {
        stroke: #06bc50;
        stroke-width: 1.19px;
      }

      .cls-37 {
        letter-spacing: .07em;
      }

      .cls-38 {
        letter-spacing: .07em;
      }

      .cls-39 {
        letter-spacing: .07em;
      }

      .cls-40 {
        letter-spacing: .07em;
      }

      .cls-41 {
        letter-spacing: .08em;
      }

      .cls-42 {
        letter-spacing: .08em;
      }

      .cls-43 {
        letter-spacing: .08em;
      }

      .cls-44 {
        letter-spacing: .08em;
      }

      .cls-45 {
        letter-spacing: .05em;
      }

      .cls-21 {
        stroke-width: 1.55px;
      }

      .cls-21, .cls-22, .cls-23 {
        stroke: #0dbe98;
      }

      .cls-22 {
        stroke-width: .3px;
      }

      .cls-46 {
        fill: #0a0c0b;
      }

      .cls-24 {
        stroke: #000;
        stroke-width: 4.2px;
      }
    </style>
    <linearGradient id="linear-gradient" x1="279.95" y1="1288.18" x2="222.19" y2="1290.54" gradientUnits="userSpaceOnUse">
      <stop offset="0" stop-color="#0dbe98"/>
      <stop offset="1" stop-color="#28257f"/>
    </linearGradient>
    <linearGradient id="linear-gradient-2" x1="279.63" y1="1298.73" x2="223.02" y2="1299.52" xlink:href="#linear-gradient"/>
    <linearGradient id="linear-gradient-3" x1="199.06" y1="569.08" x2="171.26" y2="570.22" xlink:href="#linear-gradient"/>
    <linearGradient id="linear-gradient-4" x1="198.91" y1="574.15" x2="171.66" y2="574.54" xlink:href="#linear-gradient"/>
    <linearGradient id="linear-gradient-5" x1="174.81" y1="746.25" x2="163.62" y2="746.71" xlink:href="#linear-gradient"/>
    <linearGradient id="linear-gradient-6" x1="174.75" y1="748.29" x2="163.78" y2="748.45" xlink:href="#linear-gradient"/>
  </defs>
  <rect class="cls-26" y="1083.45" width="759.81" height="653.93"/>
  <g>
    <path class="cls-20" d="M222.65,50.33c.56-1.85,3.1-9.53,4.42-13.52.35-1.05-.6-2.06-1.66-1.78-4.32,1.11-12.84,3.21-13.22,2.65-.33-.49-1.84-3.52-2.87-5.63-.47-.94-1.77-1.05-2.38-.2-2.92,4.08-6.57,9.66-11.01,10.89-.22.06-.45.11-.68.1.05.05.2-.02.76-.05,1.38-.06,1-.75,1.5-.5s1.38,0,2.51-.63c1.13-.63.69-.31,1.69.44s1.13-.63,3.01-1.07c1.88-.44,3.13,2.01,3.32,3.64.19,1.63-2.26,4.26-2.76,5.7-.5,1.44-4.76,5.08-6.33,6.89-1.57,1.82-.13,10.59.25,13.48.38,2.88-2.26,5.14-2.13,3.07,0-.14,0-.28,0-.41-.15-1.41-2.18-1.6-2.67-.26-.14.39-.33.73-.58.92-.81.63-2.19,1.75-2.88,1.13-.41-.38-.98.62-1.37,1.48-.24.52-.77.84-1.34.81-.4-.02-.97,0-1.8.09-2.57.31-4.45,2.26-4.63,2.44s-1.88-2.32-3.38-1.63c-1.5.69-2.88,2.13-2.88,2.13v-2.26c0-2.26-1.82-1.94-1.82-1.94-4.59.95-9.15-.57-11.1-1.37-.55-.23-.89-.79-.85-1.39.02-.35-.01-.65-.21-.62-.44.06-2.13-.63-2.13-.81s-.44-1.88-.44-1.88l-.38-1.69-.45-1.7c-.09-.33-.06-.69.1-1,.57-1.07,1.72-1.13,2.92-1.57,1.15-.42,5.86-4.4,7.4-5.72.3-.26.47-.62.48-1.01.02-1,.23-3.06,1.51-4.49,1.75-1.94,4.32-2.51,7.9-3.82,3.57-1.32,4.22-1.82,4.64-1.82,1,0,2.51-2.88,3.11-4.08.6-1.19,1.59-3.57,3.72-4.2.8-.24,1.49-.21,2.1.02.85.31,1.72-.32,1.81-1.22.41-4.37,2.57-9.18,3.42-13.03,0,0,2.87-12.57,2.36-12.48-1.21.21-2.67,1.53-3.7,2.14-1.85,1.1-3.71,2.28-5.71,3.09-.16.07-.34.13-.5.08-.19-.06-.31-.24-.4-.41-2.19-3.76-4.1-7.68-6.03-11.58-.27-.55-1.57-2.6-2.55-4.43-.55-1.02-2.01-.98-2.49.08-.77,1.7-1.56,3.38-2.36,5.06-.93,1.95-4.16,11.05-6.64,11.25-.23.02-.46-.05-.69-.13-2.04-.7-3.92-1.96-5.73-3.1-.1-.06-.28-.16-.51-.28-1.05-.55-2.27.37-2.01,1.53,1.81,8.25,3.56,16.55,4.56,24.93.06.48.11.99-.13,1.41-.35.62-1.22.76-1.89.51-2.68-1.01-5.31-5.04-7.08-7.12l-3.52-3.76c-.72-.77-2.01-.49-2.34.52-.7,2.17-1.75,4.94-3.01,5.22-.26.06-.52.01-.78-.03-3.14-.56-6.26-1.22-9.37-1.91-.29-.06-1.66-.25-2.95-.48-1.05-.19-1.92.83-1.56,1.83,1.51,4.23,2.98,8.48,4.23,12.8.07.23.13.49.04.71-.08.19-.27.31-.44.42-.46.3-2.81,1.9-4.61,2.91-.87.49-.96,1.69-.18,2.3,4.02,3.15,8.01,6.36,11.99,9.55,2.36,1.89,4.72,3.79,7.07,5.7,1,.81,5.14,3.25,5.23,4.69.02.26-.08.51-.18.75-.79,1.99-1.58,3.99-2.36,5.98-.39,1,.44,2.05,1.5,1.89,2.02-.31,4.61-.5,5.23-.61,2.35-.41,4.71-.82,7.06-1.23,2.72-.47,5.44-1.08,8.18-1.44.19-.03.39-.01.58.04.73.2,2.57.8,2.57,1.61v3.5c0,.77.62,1.39,1.39,1.39h0c.77,0,1.39-.62,1.39-1.39v-2.82c0-.44.21-.86.57-1.12.82-.59,2.38-1.54,3.57-1.25,3.37.84,6.84,1.38,10.25,2.03,2.82.54,6.3,1.74,9.36,2,.99.08,1.75-.86,1.45-1.81-.34-1.12-.83-2.19-1.28-3.28-.44-1.06-1.67-2.87-1.38-4.01.39-1.52,3.95-3.59,5.09-4.53,2.35-1.94,4.71-3.87,7.07-5.8,2.36-1.93,4.73-3.85,7.1-5.77.57-.46,2.64-2.52,4.38-3.98.82-.69.59-2-.41-2.37-2.07-.76-4.45-1.97-4.01-3.45Z"/>
    <path class="cls-17" d="M222.65,50.33c.56-1.85,3.1-9.53,4.42-13.52.35-1.05-.6-2.06-1.66-1.78-4.32,1.11-12.84,3.21-13.22,2.65-.33-.49-1.84-3.52-2.87-5.63-.47-.94-1.77-1.05-2.38-.2-2.92,4.08-6.57,9.66-11.01,10.89-.22.06-.45.11-.68.1.05.05.2-.02.76-.05,1.38-.06,1-.75,1.5-.5s1.38,0,2.51-.63c1.13-.63.69-.31,1.69.44s1.13-.63,3.01-1.07c1.88-.44,3.13,2.01,3.32,3.64.19,1.63-2.26,4.26-2.76,5.7-.5,1.44-4.76,5.08-6.33,6.89-1.57,1.82-.13,10.59.25,13.48.38,2.88-2.26,5.14-2.13,3.07,0-.14,0-.28,0-.41-.15-1.41-2.18-1.6-2.67-.26-.14.39-.33.73-.58.92-.81.63-2.19,1.75-2.88,1.13-.41-.38-.98.62-1.37,1.48-.24.52-.77.84-1.34.81-.4-.02-.97,0-1.8.09-2.57.31-4.45,2.26-4.63,2.44s-1.88-2.32-3.38-1.63c-1.5.69-2.88,2.13-2.88,2.13v-2.26c0-2.26-1.82-1.94-1.82-1.94-4.59.95-9.15-.57-11.1-1.37-.55-.23-.89-.79-.85-1.39.02-.35-.01-.65-.21-.62-.44.06-2.13-.63-2.13-.81s-.44-1.88-.44-1.88l-.38-1.69-.45-1.7c-.09-.33-.06-.69.1-1,.57-1.07,1.72-1.13,2.92-1.57,1.15-.42,5.86-4.4,7.4-5.72.3-.26.47-.62.48-1.01.02-1,.23-3.06,1.51-4.49,1.75-1.94,4.32-2.51,7.9-3.82,3.57-1.32,4.22-1.82,4.64-1.82,1,0,2.51-2.88,3.11-4.08.6-1.19,1.59-3.57,3.72-4.2.8-.24,1.49-.21,2.1.02.85.31,1.72-.32,1.81-1.22.41-4.37,2.57-9.18,3.42-13.03,0,0,2.87-12.57,2.36-12.48-1.21.21-2.67,1.53-3.7,2.14-1.85,1.1-3.71,2.28-5.71,3.09-.16.07-.34.13-.5.08-.19-.06-.31-.24-.4-.41-2.19-3.76-4.1-7.68-6.03-11.58-.27-.55-1.57-2.6-2.55-4.43-.55-1.02-2.01-.98-2.49.08-.77,1.7-1.56,3.38-2.36,5.06-.93,1.95-4.16,11.05-6.64,11.25-.23.02-.46-.05-.69-.13-2.04-.7-3.92-1.96-5.73-3.1-.1-.06-.28-.16-.51-.28-1.05-.55-2.27.37-2.01,1.53,1.81,8.25,3.56,16.55,4.56,24.93.06.48.11.99-.13,1.41-.35.62-1.22.76-1.89.51-2.68-1.01-5.31-5.04-7.08-7.12l-3.52-3.76c-.72-.77-2.01-.49-2.34.52-.7,2.17-1.75,4.94-3.01,5.22-.26.06-.52.01-.78-.03-3.14-.56-6.26-1.22-9.37-1.91-.29-.06-1.66-.25-2.95-.48-1.05-.19-1.92.83-1.56,1.83,1.51,4.23,2.98,8.48,4.23,12.8.07.23.13.49.04.71-.08.19-.27.31-.44.42-.46.3-2.81,1.9-4.61,2.91-.87.49-.96,1.69-.18,2.3,4.02,3.15,8.01,6.36,11.99,9.55,2.36,1.89,4.72,3.79,7.07,5.7,1,.81,5.14,3.25,5.23,4.69.02.26-.08.51-.18.75-.79,1.99-1.58,3.99-2.36,5.98-.39,1,.44,2.05,1.5,1.89,2.02-.31,4.61-.5,5.23-.61,2.35-.41,4.71-.82,7.06-1.23,2.72-.47,5.44-1.08,8.18-1.44.19-.03.39-.01.58.04.73.2,2.57.8,2.57,1.61v3.5c0,.77.62,1.39,1.39,1.39h0c.77,0,1.39-.62,1.39-1.39v-2.82c0-.44.21-.86.57-1.12.82-.59,2.38-1.54,3.57-1.25,3.37.84,6.84,1.38,10.25,2.03,2.82.54,6.3,1.74,9.36,2,.99.08,1.75-.86,1.45-1.81-.34-1.12-.83-2.19-1.28-3.28-.44-1.06-1.67-2.87-1.38-4.01.39-1.52,3.95-3.59,5.09-4.53,2.35-1.94,4.71-3.87,7.07-5.8,2.36-1.93,4.73-3.85,7.1-5.77.57-.46,2.64-2.52,4.38-3.98.82-.69.59-2-.41-2.37-2.07-.76-4.45-1.97-4.01-3.45Z"/>
    <text class="cls-2" transform="translate(109.12 110.75)"><tspan class="cls-35" x="0" y="0">S</tspan><tspan x="15.42" y="0">p</tspan><tspan class="cls-36" x="32.8" y="0">r</tspan><tspan x="44.48" y="0">outpay</tspan></text>
  </g>
  <text class="cls-9" transform="translate(175.45 430.64)"><tspan class="cls-42" x="0" y="0">p</tspan><tspan class="cls-40" x="20.46" y="0">r</tspan><tspan class="cls-42" x="35.05" y="0">outpay</tspan></text>
  <g>
    <text class="cls-2" transform="translate(511.18 85.04)"><tspan class="cls-35" x="0" y="0">S</tspan><tspan x="15.42" y="0">p</tspan><tspan class="cls-36" x="32.8" y="0">r</tspan><tspan x="44.48" y="0">outpay</tspan></text>
    <path class="cls-34" d="M526.3,34.43c3.27-3.74,5.16-8.69,9.69-11.25,1.72-.97,3.65-1.45,5.57-1.8.93-.17,3.16-.09,3.93-.59,0,0-2.22,1.44-2.33,2.44s3.88-2.22,7.21-.44l-.78,2.11s2.33-1.44,5.32.11-1.11.11-1.89,1.22c.58-.82,5.09,2.78,5.58,3.27,2.05,2.06,3.44,4.69,5.72,6.54-2.29-1.01-4.54-2.39-6.83-3.5-3.15-1.51-6.41-3.21-9.95-3.53s-7.04.6-10.27,1.91c-2.17.89-4.27,1.95-6.37,2.99-1.86.91-4.47,2.61-6.51,2.71.55-.79,1.26-1.46,1.89-2.19Z"/>
    <path class="cls-46" d="M523.3,38.26c4.11-2.76,9.02-5.05,13.88-6.03,6.49-1.3,11.91.33,17.71,3.07,1.92.91,3.83,1.86,5.69,2.88.63.34,1.15.84,1.82,1.13-.61-.26-2.14.13-2.84.12-1.12-.02-2.25-.12-3.35-.39-1.7-.41-3.16-1.29-4.59-2.28.32.94.69,2.87,1.58,3.42-1.39-.65-2.79-1.3-4.18-1.95-.16-.08-.34-.15-.52-.15-.56.02-.76.82-.52,1.33s.7.89.91,1.42c-1.97-.13-3.9-.7-5.62-1.66.27.98.67,1.93,1.2,2.79-2.65.72-5.48.47-8.12-.29-2.57-.74-4.88-1.98-7.27-3.14-1.82-.89-3.96-1.5-5.79-.28Z"/>
    <path class="cls-46" d="M509.23,105.69c-9.82-11.69-13.75-27.81-8.73-42.42,2.84-8.24,8.31-15.55,15.42-20.59,5.24-3.72,11.3-6.16,17.61-7.43-22.42.99-40.33,19.3-40.68,41.88-.35,22.43,16.88,41.13,38.76,43.11-.71-.18-1.42-.38-2.13-.61-7.9-2.53-14.91-7.57-20.25-13.92Z"/>
  </g>
  <g>
    <text class="cls-2" transform="translate(323.97 146.88)"><tspan class="cls-35" x="0" y="0">S</tspan><tspan x="15.42" y="0">p</tspan><tspan class="cls-36" x="32.8" y="0">r</tspan><tspan x="44.48" y="0">outpay</tspan></text>
    <path class="cls-16" d="M303.57,238.71c13.41-9,29.46-16.49,45.31-19.68,21.2-4.26,38.87,1.09,57.81,10.03,6.28,2.96,12.49,6.07,18.59,9.39,2.06,1.13,3.77,2.74,5.95,3.67-2-.85-6.99.43-9.29.39-3.67-.07-7.35-.4-10.93-1.26-5.56-1.34-10.32-4.22-14.98-7.45,1.06,3.07,2.25,9.37,5.15,11.17-4.55-2.12-9.09-4.23-13.64-6.35-.53-.25-1.1-.5-1.69-.48-1.84.07-2.47,2.66-1.71,4.34.76,1.67,2.28,2.92,2.97,4.62-6.42-.41-12.73-2.28-18.34-5.42.87,3.2,2.2,6.28,3.93,9.12-8.64,2.33-17.89,1.52-26.49-.94-8.39-2.4-15.94-6.45-23.73-10.26-5.93-2.9-12.94-4.91-18.91-.9Z"/>
    <rect class="cls-34" x="378.17" y="210.54" width="6.43" height="27.19"/>
    <rect class="cls-34" x="410.8" y="198.18" width="6.43" height="39.55"/>
    <rect class="cls-34" x="404.62" y="217.96" width="4.94" height="17.13"/>
    <path class="cls-18" d="M449.19,204.55c-2.11-2.12-21.84-17.87-24.36-14.28,3.39-4.84,21.32,1.45,8.24-5.33-13.08-6.78-23.26-.48-23.26-.48l3.39-9.21c-14.53-7.75-31.98,6.3-31.49,1.94.48-4.36,10.17-10.66,10.17-10.66-3.36,2.18-13.11,1.83-17.17,2.57-8.41,1.54-16.84,3.62-24.34,7.87-19.75,11.18-28.03,32.83-42.31,49.15-2.76,3.16-5.86,6.12-8.27,9.56,8.91-.41,20.3-7.85,28.43-11.83,8.69-4.25,17.32-8.62,26.25-12.35v-15.43h10.48v11.48c4.75-1.58,9.61-2.9,14.54-3.83v-7.65h9.83v6.33c3.86-.28,7.74-.28,11.61.06,4.05.36,8.01,1.14,11.91,2.21v-4.96h5.77v6.76c8.88,3.07,17.42,7.38,25.76,11.4,10,4.81,19.8,10.85,29.82,15.27-9.98-8.07-16.03-19.57-25.01-28.58Z"/>
    <rect class="cls-34" x="389.72" y="194.47" width="5.71" height="40.62"/>
    <rect class="cls-34" x="361.09" y="194.47" width="6.31" height="47.21"/>
    <rect class="cls-34" x="425.87" y="201.3" width="5.69" height="38.16"/>
  </g>
  <path class="cls-34" d="M161.24,362.03c2.29-2.61,3.61-6.08,6.78-7.87,1.2-.68,2.55-1.01,3.9-1.26.65-.12,2.21-.06,2.75-.41,0,0-1.55,1.01-1.63,1.71s2.72-1.55,5.04-.31l-.54,1.47s1.63-1.01,3.72.08-.78.08-1.32.85c.4-.57,3.56,1.95,3.9,2.29,1.44,1.44,2.41,3.28,4,4.58-1.6-.71-3.17-1.68-4.77-2.45-2.2-1.06-4.48-2.25-6.96-2.47s-4.93.42-7.18,1.34c-1.52.62-2.98,1.37-4.46,2.09-1.3.64-3.13,1.83-4.55,1.89.39-.55.88-1.02,1.32-1.53Z"/>
  <path class="cls-46" d="M159.22,363.8c2.87-1.93,6.31-3.53,9.71-4.22,4.54-.91,8.33.23,12.39,2.15,1.35.64,2.68,1.3,3.98,2.01.44.24.81.59,1.27.79-.43-.18-1.5.09-1.99.08-.79-.01-1.58-.09-2.34-.27-1.19-.29-2.21-.91-3.21-1.6.23.66.48,2.01,1.1,2.39-.97-.45-1.95-.91-2.92-1.36-.11-.05-.23-.11-.36-.1-.39.02-.53.57-.37.93s.49.63.64.99c-1.37-.09-2.73-.49-3.93-1.16.19.69.47,1.35.84,1.95-1.85.5-3.83.33-5.68-.2-1.8-.51-3.42-1.38-5.09-2.2-1.27-.62-2.77-1.05-4.05-.19Z"/>
  <rect class="cls-24" x="144.04" y="397.02" width="30.45" height="41.04" rx="5.96" ry="5.96"/>
  <g>
    <rect class="cls-14" x="146.61" y="469.05" width="183.91" height="41.41"/>
    <text class="cls-9" transform="translate(161.22 500.14)"><tspan class="cls-45" x="0" y="0">S</tspan><tspan class="cls-42" x="18.45" y="0">p</tspan><tspan class="cls-40" x="38.91" y="0">r</tspan><tspan class="cls-42" x="53.49" y="0">outpay</tspan></text>
    <rect class="cls-13" x="177.39" y="481.89" width="2.96" height="18.26"/>
    <rect class="cls-13" x="197.15" y="482.83" width="2.96" height="18.26"/>
    <rect class="cls-13" x="212.77" y="482.83" width="2.96" height="18.26"/>
    <rect class="cls-13" x="231.41" y="482.83" width="2.96" height="18.26"/>
    <rect class="cls-13" x="252.68" y="482.83" width="2.96" height="18.26"/>
    <rect class="cls-13" x="265.67" y="482.83" width="2.96" height="18.26"/>
    <rect class="cls-13" x="285.43" y="482.83" width="2.96" height="18.26"/>
    <rect class="cls-13" x="302.56" y="482.83" width="2.96" height="18.26"/>
    <line class="cls-19" x1="151.78" y1="500.14" x2="328.63" y2="500.14"/>
    <line class="cls-19" x1="150.94" y1="485.89" x2="328.63" y2="485.89"/>
  </g>
  <text class="cls-10" transform="translate(249 1429.95)"><tspan class="cls-41" x="0" y="0">p</tspan><tspan class="cls-38" x="42.37" y="0">r</tspan><tspan class="cls-41" x="72.57" y="0">outpay</tspan></text>
  <path class="cls-32" d="M233.09,1297.12c4.74-5.41,7.48-12.59,14.03-16.3,2.49-1.41,5.28-2.1,8.07-2.61,1.34-.25,4.58-.13,5.69-.85,0,0-3.21,2.09-3.37,3.53s5.62-3.21,10.44-.64l-1.12,3.05s3.37-2.09,7.71.16c4.34,2.25-1.61.16-2.73,1.77.83-1.19,7.38,4.03,8.08,4.73,2.98,2.99,4.98,6.8,8.29,9.48-3.32-1.47-6.57-3.47-9.89-5.06-4.56-2.19-9.29-4.65-14.41-5.11-5.08-.45-10.2.87-14.87,2.77-3.15,1.28-6.18,2.83-9.23,4.32-2.7,1.32-6.47,3.79-9.43,3.92.8-1.14,1.83-2.12,2.74-3.17Z"/>
  <path class="cls-31" d="M228.9,1300.78c5.95-4,13.07-7.32,20.11-8.73,9.41-1.89,17.25.48,25.65,4.45,2.79,1.32,5.54,2.69,8.25,4.17.91.5,1.67,1.22,2.64,1.63-.89-.38-3.1.19-4.12.17-1.63-.03-3.26-.18-4.85-.56-2.47-.59-4.58-1.87-6.65-3.31.47,1.36,1,4.16,2.29,4.95-2.02-.94-4.04-1.88-6.05-2.82-.24-.11-.49-.22-.75-.21-.81.03-1.09,1.18-.76,1.92s1.01,1.3,1.32,2.05c-2.85-.18-5.65-1.01-8.14-2.41.39,1.42.98,2.79,1.74,4.05-3.83,1.04-7.94.68-11.76-.42-3.72-1.07-7.07-2.86-10.53-4.55-2.63-1.28-5.74-2.18-8.39-.4Z"/>
  <path class="cls-21" d="M211.2,1354.04c-7.57-9-10.59-21.42-6.72-32.67,2.18-6.35,6.4-11.98,11.88-15.86,4.04-2.86,8.7-4.75,13.56-5.73-17.26.76-31.06,14.86-31.33,32.25-.27,17.28,13,31.67,29.85,33.2-.55-.14-1.09-.3-1.64-.47-6.09-1.95-11.48-5.83-15.59-10.72Z"/>
  <path class="cls-15" d="M151.39,388.91c-3.64-4.33-5.1-10.31-3.23-15.72,1.05-3.05,3.08-5.76,5.72-7.63,1.94-1.38,4.19-2.28,6.53-2.76-8.31.37-14.95,7.15-15.08,15.52-.13,8.31,6.26,15.24,14.37,15.98-.26-.07-.53-.14-.79-.23-2.93-.94-5.53-2.8-7.51-5.16Z"/>
  <rect class="cls-33" x="183.96" y="1360.33" width="63.05" height="84.98" rx="12.34" ry="12.34"/>
  <text class="cls-4" transform="translate(199.12 1429.95)"><tspan x="0" y="0">s</tspan></text>
  <text class="cls-11" transform="translate(184.16 637.31)"><tspan class="cls-43" x="0" y="0">p</tspan><tspan class="cls-39" x="20.39" y="0">r</tspan><tspan class="cls-43" x="34.93" y="0">outpay</tspan></text>
  <path class="cls-30" d="M176.51,573.38c2.28-2.6,3.6-6.06,6.75-7.84,1.2-.68,2.54-1.01,3.88-1.26.65-.12,2.2-.06,2.74-.41,0,0-1.55,1.01-1.62,1.7s2.71-1.55,5.03-.31l-.54,1.47s1.62-1.01,3.71.08c2.09,1.08-.77.08-1.31.85.4-.57,3.55,1.94,3.89,2.28,1.43,1.44,2.4,3.27,3.99,4.56-1.6-.71-3.16-1.67-4.76-2.44-2.19-1.06-4.47-2.24-6.93-2.46s-4.91.42-7.16,1.33c-1.52.62-2.97,1.36-4.44,2.08-1.3.64-3.12,1.82-4.54,1.89.38-.55.88-1.02,1.32-1.53Z"/>
  <path class="cls-29" d="M174.49,575.14c2.86-1.92,6.29-3.52,9.68-4.2,4.53-.91,8.3.23,12.35,2.14,1.34.63,2.67,1.3,3.97,2.01.44.24.8.59,1.27.78-.43-.18-1.49.09-1.98.08-.78-.01-1.57-.09-2.33-.27-1.19-.29-2.2-.9-3.2-1.59.23.65.48,2,1.1,2.38-.97-.45-1.94-.9-2.91-1.36-.11-.05-.23-.11-.36-.1-.39.02-.53.57-.37.93s.49.62.63.99c-1.37-.09-2.72-.49-3.92-1.16.19.68.47,1.34.84,1.95-1.84.5-3.82.32-5.66-.2-1.79-.51-3.4-1.38-5.07-2.19-1.27-.62-2.76-1.05-4.04-.19Z"/>
  <path class="cls-23" d="M165.98,600.77c-3.64-4.33-5.1-10.31-3.23-15.72,1.05-3.05,3.08-5.76,5.72-7.63,1.94-1.38,4.19-2.28,6.53-2.76-8.31.37-14.95,7.15-15.08,15.52-.13,8.31,6.26,15.24,14.37,15.98-.26-.07-.53-.14-.79-.23-2.93-.94-5.53-2.8-7.51-5.16Z"/>
  <rect class="cls-33" x="152.86" y="603.8" width="30.34" height="40.9" rx="5.94" ry="5.94"/>
  <text class="cls-1" transform="translate(160.16 637.31)"><tspan x="0" y="0">s</tspan></text>
  <g>
    <text class="cls-3" transform="translate(168.81 773.71)"><tspan class="cls-44" x="0" y="0">p</tspan><tspan class="cls-37" x="8.21" y="0">r</tspan><tspan class="cls-44" x="14.06" y="0">outpay</tspan></text>
    <path class="cls-27" d="M165.73,747.98c.92-1.05,1.45-2.44,2.72-3.16.48-.27,1.02-.41,1.56-.51.26-.05.89-.02,1.1-.17,0,0-.62.4-.65.68s1.09-.62,2.02-.12l-.22.59s.65-.4,1.49.03-.31.03-.53.34c.16-.23,1.43.78,1.56.92.58.58.96,1.32,1.61,1.84-.64-.28-1.27-.67-1.91-.98-.88-.42-1.8-.9-2.79-.99s-1.98.17-2.88.54c-.61.25-1.2.55-1.79.84-.52.26-1.25.73-1.83.76.15-.22.35-.41.53-.61Z"/>
    <path class="cls-28" d="M164.92,748.69c1.15-.77,2.53-1.42,3.89-1.69,1.82-.37,3.34.09,4.97.86.54.25,1.07.52,1.6.81.18.1.32.24.51.32-.17-.07-.6.04-.8.03-.32,0-.63-.03-.94-.11-.48-.11-.89-.36-1.29-.64.09.26.19.81.44.96-.39-.18-.78-.36-1.17-.55-.05-.02-.09-.04-.14-.04-.16,0-.21.23-.15.37s.2.25.26.4c-.55-.04-1.09-.2-1.58-.47.08.28.19.54.34.78-.74.2-1.54.13-2.28-.08-.72-.21-1.37-.55-2.04-.88-.51-.25-1.11-.42-1.63-.08Z"/>
    <path class="cls-22" d="M161.49,759.01c-1.47-1.74-2.05-4.15-1.3-6.33.42-1.23,1.24-2.32,2.3-3.07.78-.55,1.68-.92,2.63-1.11-3.34.15-6.02,2.88-6.07,6.25-.05,3.35,2.52,6.13,5.78,6.43-.11-.03-.21-.06-.32-.09-1.18-.38-2.22-1.13-3.02-2.08Z"/>
    <rect class="cls-33" x="156.22" y="760.23" width="12.21" height="16.46" rx="2.39" ry="2.39"/>
    <text class="cls-6" transform="translate(159.15 773.71)"><tspan x="0" y="0">s</tspan></text>
  </g>
  <rect class="cls-33" x="152.27" y="684.44" width="30.34" height="40.9" rx="5.94" ry="5.94"/>
  <text class="cls-1" transform="translate(159.57 715.95)"><tspan x="0" y="0">s</tspan></text>
  <text class="cls-7" transform="translate(150.94 430.97)"><tspan x="0" y="0">s</tspan></text>
  <circle class="cls-25" cx="522.86" cy="418.85" r="11.8"/>
  <circle class="cls-33" cx="522.86" cy="486.84" r="11.8"/>
  <circle class="cls-12" cx="518.74" cy="553.25" r="11.8"/>
  <text class="cls-8" transform="translate(468.02 378.21)"><tspan x="0" y="0">colors</tspan></text>
  <text class="cls-5" transform="translate(552 407.05)"><tspan x="0" y="0">r</tspan><tspan x="0" y="14.4">g </tspan><tspan x="0" y="28.8">b</tspan></text>
  <text class="cls-5" transform="translate(552.8 477.89)"><tspan x="0" y="0">r</tspan><tspan x="0" y="14.4">g </tspan><tspan x="0" y="28.8">b</tspan></text>
  <text class="cls-5" transform="translate(552.51 549.47)"><tspan x="0" y="0">r</tspan><tspan x="0" y="14.4">g </tspan><tspan x="0" y="28.8">b</tspan></text>
  <text class="cls-5" transform="translate(578.05 407.09)"><tspan x="0" y="0">96 </tspan><tspan x="0" y="14.4">96</tspan><tspan x="0" y="28.8">228</tspan></text>
  <text class="cls-5" transform="translate(578.28 481.89)"><tspan x="0" y="0">40</tspan><tspan x="0" y="14.4">37</tspan><tspan x="0" y="28.8">127</tspan></text>
  <text class="cls-5" transform="translate(578.62 549.47)"><tspan x="0" y="0">13 </tspan><tspan x="0" y="14.4">190</tspan><tspan x="0" y="28.8">152</tspan></text>
</svg>